PathFileType	4	(X/Y/Z)	D:\TRACE\v60_Jaco2_6-2-23\JustBodyDRS_Motion3_2-platform.trc
DataRate	CameraRate	NumFrames	NumMarkers	Units	OrigDataRate	OrigDataStartFrame	OrigNumFrames
100.00	100.00	      73	5	mm	100.00	6126	      7000
Frame#	Time	Left_Front			Right_Front			Left_Aft			Right_Aft			Post			
		X1	Y1	Z1	X2	Y2	Z2	X3	Y3	Z3	X4	Y4	Z4	X5	Y5	Z5	

6126	61.250	-786.77045	27.52351	-646.32074	783.80835	25.93614	-623.49036	-718.20422	-1.68660	487.23785	696.56079	-6.07227	592.89563	8.63310	1333.36804	-923.17181	
6127	61.260	-786.91766	27.60726	-646.28577	783.48944	25.88982	-623.46802	-718.58887	-1.35739	487.12177	696.38678	-6.13960	592.90039	8.35035	1333.65637	-922.82495	
6128	61.270	-786.99298	27.78245	-646.13647	783.37976	26.18722	-623.40326	-718.86920	-1.35738	487.36307	696.33118	-6.16842	592.93591	8.24356	1334.05603	-922.55426	
6129	61.280	-787.12469	28.00038	-646.11005	783.18463	26.37829	-623.41254	-719.05438	-1.52478	487.67151	696.29437	-6.17855	592.93591	8.14532	1334.33508	-922.38330	
6130	61.290	-787.41040	28.17981	-646.18573	782.94531	26.49598	-623.45013	-719.21820	-1.49416	487.21017	696.11816	-6.25295	592.95972	7.93411	1334.50342	-922.27820	
6131	61.300	-787.96875	28.40110	-646.37537	782.78381	26.55627	-623.48755	-719.41388	-1.56454	487.27197	695.52014	-6.64518	592.97620	7.54393	1334.58496	-922.13214	
6132	61.310	-788.19745	28.54942	-646.32892	782.53638	26.71077	-623.48322	-719.60950	-1.73891	487.41541	695.07587	-6.92432	593.01459	7.35842	1334.70862	-922.07861	
6133	61.320	-788.30505	28.66810	-646.23645	782.51941	26.95011	-623.20496	-719.73657	-1.85801	487.49817	694.87964	-7.06714	593.02820	7.27349	1334.79785	-922.04016	
6134	61.330	-788.49567	28.80725	-646.16620	782.10211	26.95899	-623.29553	-719.85352	-1.84836	487.50168	694.89270	-7.08669	593.07599	7.14800	1334.84912	-921.91260	
6135	61.340	-788.73712	28.91188	-646.20490	781.94806	27.05434	-623.26361	-720.00897	-2.00123	487.42514	694.89655	-7.14119	593.13593	6.94291	1335.06458	-921.59863	
6136	61.350	-788.89838	29.11191	-646.12531	781.80768	27.13597	-623.20203	-720.16449	-2.15869	487.45203	694.73529	-7.19407	593.05914	6.81714	1335.15955	-921.29156	
6137	61.360	-789.02679	29.22380	-646.09015	781.86676	27.16266	-623.18524	-720.39899	-2.21097	487.53256	694.63739	-7.23690	593.11908	6.36402	1335.17798	-920.78046	
6138	61.370	-789.08459	29.22806	-646.02612	781.74860	27.16913	-623.16284	-720.47729	-2.26718	487.55862	694.45538	-7.32767	593.16229	6.15976	1335.20251	-920.39520	
6139	61.380	-789.15509	29.15881	-645.96539	781.63196	27.30511	-623.16064	-720.54834	-2.30704	487.55685	694.39038	-7.32396	593.17596	6.12200	1335.35657	-920.07587	
6140	61.390	-789.24646	29.13011	-645.97931	781.55261	27.31281	-623.15741	-720.64087	-2.30846	487.57333	694.29346	-7.28742	593.05511	6.12945	1335.46362	-920.04913	
6141	61.400	-789.25720	29.15549	-645.98932	781.48938	27.33055	-623.14453	-720.96967	-1.90243	487.49231	694.16003	-7.24687	593.12860	6.12155	1335.46460	-920.03088	
6142	61.410	-789.34753	29.18810	-646.04889	781.42334	27.31626	-623.14252	-720.73022	-2.45483	487.69965	694.00439	-7.28478	593.11322	5.99519	1335.38477	-920.14099	
6143	61.420	-789.40771	29.18723	-646.03937	781.32928	27.24093	-623.16956	-720.75342	-2.55684	487.75821	693.79498	-7.33181	593.18530	5.96930	1335.30615	-920.18823	
6144	61.430	-789.37695	29.19576	-646.02832	781.30634	27.25291	-623.15985	-720.83356	-2.57811	487.74319	693.78387	-7.35704	593.21649	5.95799	1335.27795	-920.36359	
6145	61.440	-789.50073	29.08327	-646.04626	781.28851	27.30755	-623.14386	-720.86017	-2.56055	487.72028	693.81262	-7.29916	593.17761	5.95776	1335.36780	-920.62488	
6146	61.450	-789.52032	28.91086	-646.01459	781.27899	27.33462	-623.13361	-720.91937	-2.56014	487.74814	693.76324	-7.26971	593.14429	5.89808	1335.43787	-920.84821	
6147	61.460	-789.58453	29.05506	-646.04285	781.21619	27.32770	-623.11224	-721.00452	-2.54682	487.70660	693.73517	-7.25439	593.17645	5.79150	1335.40491	-921.15350	
6148	61.470	-789.63232	29.15833	-646.09430	781.15845	27.26808	-623.15082	-721.03198	-2.55589	487.71320	693.59729	-7.28571	593.18152	5.79530	1335.32605	-921.28210	
6149	61.480	-789.65118	29.13286	-646.11292	781.09534	27.17301	-623.17194	-721.06085	-2.54129	487.71701	693.60571	-7.27844	593.19202	5.76388	1335.20264	-921.32953	
6150	61.490	-789.64398	29.01886	-646.11829	781.10791	27.18073	-623.18665	-721.07056	-2.47806	487.68243	693.60425	-7.21320	593.11279	5.83225	1335.21021	-921.25757	
6151	61.500	-789.64679	28.80520	-646.09778	781.11432	27.13833	-623.19415	-721.06763	-2.44327	487.65823	693.64673	-7.07244	593.07404	5.77091	1335.18921	-921.10883	
6152	61.510	-789.59790	28.78049	-646.13562	781.11890	27.15450	-623.21429	-721.04358	-2.43553	487.64899	693.68713	-6.98406	593.03351	5.69773	1335.14136	-920.96320	
6153	61.520	-789.60095	28.73713	-646.12543	781.01453	27.06187	-623.25055	-721.09143	-2.36987	487.62744	693.57910	-6.96418	593.02039	5.65168	1334.93835	-920.81476	
6154	61.530	-789.62225	28.62758	-646.20740	780.98596	26.92004	-623.21948	-721.04492	-2.26071	487.63870	693.20142	-6.98806	593.08722	5.66867	1334.79846	-920.79761	
6155	61.540	-789.69299	28.37502	-646.20526	781.00293	26.69200	-623.26593	-721.05371	-2.17682	487.65372	693.11859	-6.86432	593.09698	5.71076	1334.72205	-920.93640	
6156	61.550	-789.72101	28.32001	-646.24750	781.05017	26.51318	-623.29095	-721.04291	-2.14325	487.60178	693.05072	-6.70380	592.97937	5.68999	1334.55115	-921.30536	
6157	61.560	-789.71521	28.27721	-646.27252	781.01825	26.47777	-623.35583	-721.05212	-2.11452	487.56909	692.97778	-6.69680	592.85834	5.65551	1334.44543	-921.56970	
6158	61.570	-789.67419	28.22645	-646.28284	781.00104	26.44456	-623.35657	-721.03796	-1.97129	487.60522	693.56091	-6.57832	592.76508	5.77971	1334.29041	-922.24860	
6159	61.580	-789.64435	28.22348	-646.30591	780.99451	26.34645	-623.34131	-720.97900	-1.83784	487.58295	693.00336	-6.61653	593.02423	5.81485	1334.08875	-923.01868	
6160	61.590	-789.59332	28.14388	-646.35181	781.02753	26.19941	-623.32721	-720.99628	-1.72730	487.53491	693.34906	-6.24459	592.93506	5.77373	1333.70349	-923.59009	
6161	61.600	-789.28558	27.72265	-645.95886	781.08582	26.10976	-623.35632	-720.95685	-1.63907	487.50171	693.42822	-6.21657	592.80719	5.85407	1333.39197	-924.06097	
6162	61.610	-789.38727	27.55780	-646.08685	781.13013	25.92521	-623.48773	-720.98224	-1.60997	487.49850	693.52960	-6.12226	592.78491	5.82891	1333.28247	-924.62665	
6163	61.620	-789.37311	27.55933	-646.11273	781.14465	25.75794	-623.50464	-720.94464	-1.48041	487.48059	693.54102	-6.01325	592.84485	5.84404	1333.14844	-924.97681	
6164	61.630	-789.35095	27.55117	-646.19385	781.23364	25.54795	-623.58026	-720.86926	-1.27483	487.44495	693.68738	-5.88046	592.84491	5.83642	1332.98694	-925.21405	
6165	61.640	-789.38568	27.45704	-646.47748	781.40649	25.44251	-623.65240	-720.68530	-1.07739	487.41415	693.92053	-5.68416	592.82062	5.89532	1332.75085	-925.45642	
6166	61.650	-789.20972	27.25367	-646.63611	781.46393	25.35704	-623.74573	-720.52393	-0.96303	487.29358	694.07928	-5.50075	592.74750	5.91637	1332.46460	-925.70319	
6167	61.660	-789.26422	26.70777	-646.87927	781.56030	25.00604	-623.79156	-720.38074	-0.85654	487.16046	694.63959	-4.88435	592.82123	6.30058	1332.05481	-926.01337	
6168	61.670	-789.19641	26.60659	-646.96234	781.65186	24.71968	-623.78979	-720.19476	-0.74292	487.21350	694.30585	-5.26783	592.69885	6.39859	1331.71533	-926.24719	
6169	61.680	-789.11542	26.51259	-647.04413	781.80176	24.57238	-623.78845	-720.11353	-0.60431	487.14035	694.56689	-5.10492	592.70123	6.59426	1331.48901	-926.39111	
6170	61.690	-788.96570	26.34098	-647.13617	781.89307	24.41148	-623.82245	-720.06616	-0.46511	487.01733	694.63434	-4.96449	592.60907	6.67773	1331.30579	-926.60492	
6171	61.700	-788.91180	26.20579	-647.19818	782.01752	24.22799	-623.91632	-720.06531	-0.34536	486.96213	694.56763	-4.84222	592.50708	6.52233	1331.03857	-927.29083	
6172	61.710	-788.79645	25.97852	-647.24194	782.15527	24.05427	-623.97101	-720.03882	-0.29068	486.86703	694.99152	-4.37910	592.40808	6.75625	1330.80566	-927.73187	
6173	61.720	-788.70520	25.85142	-647.23706	782.12408	23.96000	-623.94391	-719.97345	-0.18693	486.82135	694.55084	-4.61815	592.38898	6.92053	1330.57410	-927.95654	
6174	61.730	-788.58710	25.73260	-647.15613	782.17596	23.81804	-623.94537	-719.83508	-0.09050	486.81390	694.67108	-4.57002	592.38947	7.00534	1330.32422	-928.49371	
6175	61.740	-788.35803	25.50874	-647.02478	782.19653	23.70478	-624.03497	-719.61176	0.00430	486.74374	694.94525	-4.40692	592.34253	7.19654	1330.13867	-929.19562	
6176	61.750	-788.23706	25.32441	-647.09625	782.43512	23.62722	-624.14734	-719.39893	0.16288	486.71603	695.18933	-4.20632	592.30103	7.33650	1330.00110	-929.77209	
6177	61.760	-788.04156	25.12317	-647.17444	782.59094	23.44023	-624.16266	-719.28723	0.27398	486.65042	695.35956	-3.97105	592.22418	7.42845	1329.74548	-930.35516	
6178	61.770	-787.91913	25.01235	-647.15430	782.64789	23.22023	-624.22064	-719.22882	0.37526	486.63751	695.05560	-4.13722	592.09137	7.46848	1329.61719	-930.56744	
6179	61.780	-787.79498	24.86923	-647.13947	782.63184	23.00692	-624.28253	-719.18298	0.47284	486.64664	695.30981	-3.87407	592.03662	7.50221	1329.43848	-930.61615	
6180	61.790	-787.64899	24.72279	-647.01477	782.64301	22.87174	-624.30127	-719.10059	0.53248	486.65915	695.37531	-3.76538	592.02637	7.58244	1329.18408	-930.68304	
6181	61.800	-787.48370	24.51214	-647.03955	782.75012	22.81976	-624.29700	-719.05768	0.59413	486.68558	695.64966	-3.45817	592.01306	7.82757	1328.94128	-930.87061	
6182	61.810	-787.43439	24.36698	-647.09839	782.86230	22.69469	-624.39587	-718.99237	0.66186	486.61279	695.81671	-3.24422	591.99786	7.79321	1328.74854	-931.11285	
6183	61.820	-787.27899	24.22075	-647.09888	782.97534	22.57834	-624.53650	-718.60956	0.68762	486.63577	695.93512	-3.13930	591.97449	7.79397	1328.53662	-931.34064	
6184	61.830	-787.18115	24.12035	-647.11292	783.01050	22.44231	-624.66443	-718.89417	0.76110	486.53485	695.84094	-3.12982	591.88245	7.72136	1328.29028	-931.54834	
6185	61.840	-787.12262	23.99440	-647.13214	783.06061	22.35277	-624.63458	-718.84583	0.81518	486.55133	695.84058	-3.12344	591.79315	7.85097	1328.09900	-931.82385	
6186	61.850	-787.12061	23.93399	-647.21844	783.13214	22.22474	-624.64496	-718.77234	0.95618	486.52341	695.74774	-3.16552	591.70221	7.91180	1327.90698	-932.21552	
6187	61.860	-787.06726	23.86506	-647.25024	783.20001	22.13137	-624.65906	-718.67010	1.02241	486.44006	695.44269	-3.37531	591.49414	8.19099	1327.78577	-932.61700	
6188	61.870	-787.03094	23.77188	-647.35028	783.24353	22.09375	-624.67255	-718.58472	1.05632	486.43820	695.98175	-2.80152	591.81940	8.29790	1327.74719	-933.02380	
6189	61.880	-787.04895	23.81638	-647.34705	783.25146	22.00037	-624.68542	-718.57208	1.06816	486.42007	696.00842	-2.73996	591.78656	8.27279	1327.69043	-933.30127	
6190	61.890	-787.02893	23.85686	-647.32068	783.24890	21.98335	-624.66504	-718.53912	1.13007	486.43851	696.14301	-2.64217	591.81445	8.22616	1327.60010	-933.60547	
6191	61.900	-786.96545	23.85684	-647.28845	783.27411	21.98207	-624.67236	-718.51776	1.24288	486.41162	696.14948	-2.61339	591.77979	8.23540	1327.43677	-933.89209	
6192	61.910	-786.94702	23.58731	-647.43427	783.44104	21.74188	-624.64752	-718.52545	1.30037	486.37491	696.15887	-2.45538	591.81519	8.08945	1327.35767	-933.95374	
6193	61.920	-786.86646	23.32592	-647.48761	783.47211	21.49142	-624.66010	-718.47839	1.29660	486.31531	696.14685	-2.36566	591.80328	8.11171	1327.21509	-933.99487	
6194	61.930	-786.94098	23.22491	-647.62317	783.39478	21.64421	-624.74200	-718.47833	1.50841	486.28387	695.56653	-2.90755	591.99792	8.35093	1326.95105	-933.82751	
6195	61.940	-786.88159	23.23279	-647.62311	783.40369	21.57789	-624.73474	-718.55261	1.46389	486.25653	695.85217	-2.65574	592.06403	8.36952	1326.82007	-933.67932	
6196	61.950	-786.90845	23.31704	-647.58429	783.37671	21.45542	-624.70026	-718.53589	1.56630	486.26093	695.97021	-2.62914	592.10468	8.23335	1326.81348	-933.84210	
6197	61.960	-786.91174	23.26111	-647.62518	783.40149	21.44856	-624.69373	-718.54535	1.60629	486.24527	695.96454	-2.71493	591.90643	8.16926	1326.93811	-934.05927	
6198	61.970	-786.95844	23.32141	-647.73370	783.43933	21.59845	-624.72858	-718.45721	1.55387	486.25436	695.94458	-2.68666	591.92041	8.09875	1326.99329	-934.13190	
